<svg id="Layer_1" data-name="Layer 1" xmlns="http://www.w3.org/2000/svg" viewBox="0 0 2359.85 514.48"><title>gusli-logo</title><path d="M1784.52,1933.82a76.63,76.63,0,0,1-25.16,56.71V1767.76h.19v-25c0-87.81-71.43-159.24-159.24-159.24a159.47,159.47,0,0,0-152.39,113h-6.85v212.25h-15.84v25a76.54,76.54,0,0,1-18.94,50.42V1898h-82.65v195.05h25c79.31,0,145.25-58.28,157.29-134.25h17.8V1742.76a76.59,76.59,0,0,1,153-5.33v355.44h6.21v.2h25c2.57,0,5.19-.07,7.81-.2h43.63v-8.33c63.54-21.72,107.81-82.13,107.81-150.72v-25h-82.65Z" transform="translate(-38.84 -1583.52)"/><path d="M2373.69,1594.52a159.09,159.09,0,0,0-92.44,29.66v-29.46H2198.6V1912h-14.26v25a76.59,76.59,0,0,1-153.18,0V1678.32h0v-82.65H1866.11v82.65h82.4V1937c0,87.81,71.43,159.25,159.24,159.25a159,159,0,0,0,80.32-21.78q5.4-3.16,10.53-6.75V2098h82.65V1778.76h15.85v-25a76.68,76.68,0,0,1,76.59-76.59h25v-82.65Z" transform="translate(-38.84 -1583.52)"/><path d="M406.37,1603.19a159.33,159.33,0,0,0-229,93.38H156.27v212.25H140.43v25a76.68,76.68,0,0,1-76.59,76.6h-25v82.65h25a159.06,159.06,0,0,0,92.43-29.66v29.46h82.65V1767.76h14.27v-25a76.59,76.59,0,0,1,153.18,0v41.32H489V1599.84H406.37Z" transform="translate(-38.84 -1583.52)"/><path d="M1195.83,1609.18a158.91,158.91,0,0,0-76.59-19.68c-87.81,0-159.24,71.44-159.24,159.25v179.82a76.68,76.68,0,0,1-76.6,76.59h-25v82.65h25a159.16,159.16,0,0,0,117.92-52.28,159.06,159.06,0,0,0,194.51,32.61v18.75h82.65V1902.64h-82.65v25.93a76.59,76.59,0,1,1-153.18,0V1748.75a76.59,76.59,0,1,1,153.18,0v41.32h82.65V1605.83h-82.65Z" transform="translate(-38.84 -1583.52)"/><path d="M772,1737.8a76.59,76.59,0,0,1-153.18,0v-25H602.92v-113H520.26v163h17.88c12,76,78,134.25,157.28,134.25A158.88,158.88,0,0,0,772,1877.37v26.2H756.17v25a76.68,76.68,0,0,1-76.59,76.59h-25v82.65h25c79.3,0,145.25-58.27,157.28-134.24h17.8V1599.84H772Z" transform="translate(-38.84 -1583.52)"/></svg>